# xmcd CD database file
#
# Track frame offsets:
#	150
#	14770
#	32087
#	47893
#	66391
#	80362
#	94389
#	110542
#	126619
#	140002
#	155518
#	171162
#
# Disc length: 2506 seconds
#
# Revision: 0
# Processed by: cddbd v1.5.2PL0 Copyright (c) Steve Scherf et al.
# Submitted via: CDex 1.70beta2
#
DISCID=b309c80c
DTITLE=Various Artist - Teddy Gentry's Best New Nashville Vol 1
DYEAR=2011
DGENRE=Country
TTITLE0=Jimmy Stewart - Every Mile I'm Missing You
TTITLE1=Chanel Campbell - I'm Gonna Cry
TTITLE2=Garrett Steele - That's the Kind of Live I Need
TTITLE3=Lanes Crossing - A Good Place to Turn Around
TTITLE4=Laura Fedor - A Better Woman
TTITLE5=Chip Davis - In His Hands
TTITLE6=Samantha Landrum - I'll Find You
TTITLE7=Dillon Dixon - Chip Away
TTITLE8=Southwind - My So Called Life
TTITLE9=Brad Long - Long Lost Smile
TTITLE10=Adrianna Freeman - Run Baby Run
TTITLE11=Amber Shalene - Are You Ever Gonna Love Me
EXTD=YEAR: 2011
EXTT0=
EXTT1=
EXTT2=
EXTT3=
EXTT4=
EXTT5=
EXTT6=
EXTT7=
EXTT8=
EXTT9=
EXTT10=
EXTT11=
PLAYORDER=
